<svg width="256" height="161" viewBox="0 0 256 161" fill="none" xmlns="http://www.w3.org/2000/svg">
<path fill-rule="evenodd" clip-rule="evenodd" d="M65.3175 81.0649C65.2708 68.6229 56.1202 58.5784 44.8794 58.63C33.6377 58.6817 24.5636 68.8099 24.6103 81.2518C24.6569 93.6937 33.8066 103.738 45.0484 103.687C56.2892 103.635 65.3641 93.5068 65.3175 81.0649ZM44.778 31.6159C69.5077 31.5133 89.6481 53.6195 89.7617 80.9923C89.8753 108.365 69.9191 130.638 45.1894 130.74C20.4589 130.843 0.319298 108.737 0.205695 81.3639C0.0920913 53.9912 20.0475 31.7186 44.778 31.6159Z" fill="#FFC735"/>
<path fill-rule="evenodd" clip-rule="evenodd" d="M116.607 86.0054C152.573 85.8403 181.607 53.4356 181.458 13.627C181.43 6.16321 186.874 0.0870466 193.618 0.0560791C200.361 0.0251115 205.851 6.05107 205.879 13.5149C206.084 68.251 166.161 112.808 116.708 113.035C109.965 113.066 104.476 107.04 104.448 99.5764C104.42 92.1126 109.864 86.0364 116.607 86.0054Z" fill="#B4D51E"/>
<path d="M138.726 133.762C189.918 133.527 231.246 87.4024 231.033 30.7407C231.005 23.2854 236.443 17.2161 243.179 17.1852C249.915 17.1543 255.398 23.1734 255.426 30.6287C255.694 102.202 203.491 160.464 138.827 160.761C132.092 160.792 126.608 154.773 126.58 147.318C126.552 139.862 131.99 133.793 138.726 133.762Z" fill="#E5E0D5"/>
</svg>
