<svg width="187" height="17" viewBox="0 0 187 17" fill="none" xmlns="http://www.w3.org/2000/svg">
<path fill-rule="evenodd" clip-rule="evenodd" d="M8.00001 1.83337L6.13201 6.83337H1.33334L5.00001 10.1667L3.66668 15.1667L7.99968 12.2957L12.3333 15.1667L11 10.1667L14.6667 6.83337H9.86568L8.00001 1.83337Z" fill="#B4D51E"/>
<path fill-rule="evenodd" clip-rule="evenodd" d="M28 1.83337L26.132 6.83337H21.3333L25 10.1667L23.6667 15.1667L27.9997 12.2957L32.3333 15.1667L31 10.1667L34.6667 6.83337H29.8657L28 1.83337Z" fill="#B4D51E"/>
<path fill-rule="evenodd" clip-rule="evenodd" d="M48 1.83337L46.132 6.83337H41.3333L45 10.1667L43.6667 15.1667L47.9997 12.2957L52.3333 15.1667L51 10.1667L54.6667 6.83337H49.8657L48 1.83337Z" fill="#B4D51E"/>
<path fill-rule="evenodd" clip-rule="evenodd" d="M68 1.83337L66.132 6.83337H61.3333L65 10.1667L63.6667 15.1667L67.9997 12.2957L72.3333 15.1667L71 10.1667L74.6667 6.83337H69.8657L68 1.83337Z" fill="#B4D51E"/>
<path fill-rule="evenodd" clip-rule="evenodd" d="M88 1.83337L86.132 6.83337H81.3333L85 10.1667L83.6667 15.1667L87.9997 12.2957L92.3333 15.1667L91 10.1667L94.6667 6.83337H89.8657L88 1.83337Z" fill="#F0F0F0"/>
</svg>
